<svg width="24" height="28" viewBox="0 0 24 28" fill="none" xmlns="http://www.w3.org/2000/svg">
<path d="M2.64583 27.7812C1.91823 27.7812 1.29536 27.5222 0.777214 27.004C0.259071 26.4859 0 25.863 0 25.1354V9.26042C0 8.53281 0.259071 7.90994 0.777214 7.3918C1.29536 6.87365 1.91823 6.61458 2.64583 6.61458H5.29167C5.29167 4.78455 5.93659 3.22461 7.22643 1.93477C8.51628 0.644922 10.0762 0 11.9062 0C13.7363 0 15.2962 0.644922 16.5861 1.93477C17.8759 3.22461 18.5208 4.78455 18.5208 6.61458H21.1667C21.8943 6.61458 22.5171 6.87365 23.0353 7.3918C23.5534 7.90994 23.8125 8.53281 23.8125 9.26042V25.1354C23.8125 25.863 23.5534 26.4859 23.0353 27.004C22.5171 27.5222 21.8943 27.7812 21.1667 27.7812H2.64583ZM11.9062 17.1979C13.7363 17.1979 15.2962 16.553 16.5861 15.2632C17.8759 13.9733 18.5208 12.4134 18.5208 10.5833H15.875C15.875 11.6858 15.4891 12.6228 14.7174 13.3945C13.9457 14.1662 13.0087 14.5521 11.9062 14.5521C10.8038 14.5521 9.86675 14.1662 9.09505 13.3945C8.32335 12.6228 7.9375 11.6858 7.9375 10.5833H5.29167C5.29167 12.4134 5.93659 13.9733 7.22643 15.2632C8.51628 16.553 10.0762 17.1979 11.9062 17.1979ZM7.9375 6.61458H15.875C15.875 5.51215 15.4891 4.57509 14.7174 3.80339C13.9457 3.03168 13.0087 2.64583 11.9062 2.64583C10.8038 2.64583 9.86675 3.03168 9.09505 3.80339C8.32335 4.57509 7.9375 5.51215 7.9375 6.61458Z" fill="#2382AB"/>
</svg>
