<svg width="66" height="56" viewBox="0 0 66 56" fill="none" xmlns="http://www.w3.org/2000/svg">
<path d="M0.900024 55.3C0.900024 51.7 0.900024 48.1667 0.900024 44.7C0.900024 41.1 0.966691 37.7 1.10002 34.5C1.23336 23.5667 2.83336 15.2333 5.90002 9.5C9.10002 3.63333 14.8334 0.633332 23.1 0.5L26.3 9.5C21.6334 9.76667 18.5 11.6333 16.9 15.1C15.4334 18.5667 14.7 23.4333 14.7 29.7H27.1V55.3H0.900024ZM39.1 55.3C39.1 51.7 39.1 48.1667 39.1 44.7C39.1 41.1 39.1667 37.7 39.3 34.5C39.4334 23.5667 41.0334 15.2333 44.1 9.5C47.3 3.63333 53.0334 0.633332 61.3 0.5L64.5 9.5C59.8334 9.76667 56.7 11.6333 55.1 15.1C53.6334 18.5667 52.9 23.4333 52.9 29.7H65.3V55.3H39.1Z" fill="white"/>
</svg>
