<svg width="66" height="56" viewBox="0 0 66 56" fill="none" xmlns="http://www.w3.org/2000/svg">
<path d="M65.3001 0.499989C65.3001 4.09998 65.3001 7.63331 65.3001 11.1C65.3001 14.7 65.2334 18.1 65.1001 21.3C64.9667 32.2333 63.3667 40.5667 60.3 46.3C57.1 52.1667 51.3667 55.1667 43.1 55.3L39.9 46.3C44.5667 46.0333 47.7 44.1667 49.3 40.7C50.7667 37.2333 51.5001 32.3666 51.5001 26.1L39.1001 26.1L39.1001 0.499986L65.3001 0.499989ZM27.1001 0.499985C27.1001 4.09998 27.1001 7.63331 27.1001 11.1C27.1001 14.7 27.0334 18.1 26.9001 21.3C26.7667 32.2333 25.1667 40.5666 22.1 46.3C18.9 52.1667 13.1667 55.1667 4.90004 55.3L1.70004 46.3C6.36671 46.0333 9.50005 44.1667 11.1 40.7C12.5667 37.2333 13.3001 32.3666 13.3001 26.1L0.90005 26.1L0.900052 0.499983L27.1001 0.499985Z" fill="white"/>
</svg>
