<svg width="35" height="31" viewBox="0 0 35 31" fill="none" xmlns="http://www.w3.org/2000/svg">
<path d="M17.2316 31C16.602 29.8773 16.0927 28.9755 15.5914 28.0696C13.7123 24.6731 11.8253 21.2805 9.96987 17.8717C9.67182 17.3257 9.32245 17.0967 8.71648 17.1294C7.83022 17.1764 6.9341 17.2112 6.05574 17.113C5.58005 17.0599 4.93855 16.8492 4.70761 16.4832C3.48975 14.5569 2.37848 12.557 1.08561 10.3342H5.83862C3.82333 6.81486 1.96002 3.56346 0 0.146415C0.455957 0.0768886 0.726373 0.00122695 0.996789 0.00122695C2.83838 -0.00286287 4.67998 0.00327185 6.52157 0.0196311C7.44138 0.0278108 8.13814 0.402029 8.60989 1.27521C12.4115 8.31583 16.2092 15.3585 20.0621 22.3705C20.7056 23.5402 20.7924 24.5095 20.0917 25.6812C19.1087 27.3233 18.2659 29.0573 17.2316 31Z" fill="#2382AB"/>
<path d="M11.4814 0.0812988H34.4708C34.0602 0.891083 33.7503 1.56795 33.3851 2.21005C32.7713 3.29385 32.0607 4.32244 31.5041 5.43487C30.9909 6.46346 30.2507 6.95628 29.1611 6.95424C24.9233 6.95015 20.6855 6.9706 16.4496 6.92152C15.9818 6.91539 15.3324 6.66182 15.0837 6.29373C13.9211 4.57601 12.8651 2.77853 11.7874 1.00151C11.6551 0.782703 11.6176 0.50255 11.4814 0.0833437V0.0812988Z" fill="#2382AB"/>
<path d="M34.4929 17.1401C31.4039 17.1401 28.5517 17.1401 25.6995 17.1401C24.4185 17.1401 23.1394 17.1565 21.8604 17.1279C21.5623 17.1217 21.1182 17.0522 20.9958 16.8477C19.7602 14.7824 18.5759 12.6822 17.2988 10.4533C17.7627 10.4103 18.041 10.3633 18.3193 10.3633C21.9295 10.3592 25.5396 10.3919 29.1498 10.3429C30.3064 10.3265 31.0644 10.7498 31.6052 11.807C32.4915 13.537 33.4508 15.2261 34.4929 17.1422V17.1401Z" fill="#2382AB"/>
</svg>
