<svg width="288" height="53" viewBox="0 0 288 53" fill="none" xmlns="http://www.w3.org/2000/svg">
<path d="M125.548 22.1168V30.3115H85.9585V41.7936H78.0112C77.9805 41.1612 77.9294 40.566 77.9294 39.9707C77.9157 32.7601 77.9123 25.5496 77.9055 18.339C77.9021 12.2006 82.3529 7.73285 88.5587 7.70241C98.0941 7.65844 107.63 7.65844 117.168 7.62801C119.438 7.62124 121.708 7.60771 123.974 7.50963C125.422 7.44537 125.893 8.20634 125.852 9.44079C125.78 11.4565 125.64 13.4688 125.514 15.7247C124.84 15.7247 124.182 15.7247 123.528 15.7247C112.176 15.7247 100.82 15.7247 89.4686 15.7247C86.7082 15.7247 85.9857 16.4417 85.9653 19.2217C85.9585 20.1146 85.9653 21.0041 85.9653 22.1168H125.552H125.548Z" fill="#2382AB"/>
<path d="M157.048 41.9296C152.055 41.9296 147.036 42.2407 142.077 41.845C136.842 41.4257 133.1 36.8633 133.063 31.638C133.008 24.2008 133.036 16.767 132.954 9.32985C132.94 7.9263 133.39 7.4359 134.804 7.53398C136.386 7.64558 137.987 7.62867 139.572 7.54074C140.894 7.46633 141.348 7.88571 141.334 9.25545C141.266 16.1819 141.3 23.1084 141.297 30.0382C141.297 33.1971 142.043 33.9919 145.154 33.9513C151.626 33.8735 158.094 33.745 164.566 33.6706C166.096 33.6537 167.626 33.7551 169.156 33.8397C171.637 33.9783 172.745 33.0077 172.755 30.5083C172.782 23.5751 172.837 16.6419 172.738 9.71203C172.714 7.99394 173.171 7.38855 174.912 7.54412C176.49 7.68617 178.092 7.605 179.68 7.55765C180.628 7.52721 180.982 7.87556 180.979 8.83269C180.962 16.4965 181.125 24.1636 180.944 31.824C180.798 38.0334 176.299 42.1021 169.995 42.1427C165.68 42.1697 161.362 42.1494 157.048 42.1494C157.048 42.0784 157.048 42.004 157.048 41.933V41.9296Z" fill="#2382AB"/>
<path d="M30.5013 52.1354C29.4142 50.2786 28.5349 48.7871 27.6693 47.2889C24.4249 41.6713 21.1669 36.0604 17.9635 30.4225C17.4489 29.5195 16.8457 29.1407 15.7994 29.1948C14.2693 29.2726 12.7221 29.3301 11.2055 29.1678C10.3842 29.0798 9.27666 28.7315 8.87793 28.1261C6.77523 24.9402 4.85656 21.6325 2.62436 17.9562H10.8307C7.35117 12.1357 4.13408 6.75821 0.75 1.10678C1.53723 0.99179 2.00412 0.866653 2.47101 0.866653C5.65061 0.859889 8.83022 0.870035 12.0098 0.897092C13.5979 0.91062 14.8009 1.52954 15.6154 2.97368C22.1791 14.6181 28.736 26.266 35.3883 37.8631C36.4993 39.7976 36.6492 41.4007 35.4394 43.3386C33.7422 46.0544 32.287 48.9224 30.5013 52.1354Z" fill="#2382AB"/>
<path d="M287.235 33.9614C287.235 36.4574 287.296 38.7538 287.173 41.0434C287.153 41.4256 286.362 42.0276 285.882 42.075C284.42 42.2136 282.937 42.1325 281.462 42.1325C271.303 42.1325 261.147 42.1392 250.988 42.1325C243.606 42.1257 239.111 37.658 239.104 30.346C239.098 23.362 239.132 16.378 239.074 9.39744C239.064 8.04799 239.377 7.44599 240.853 7.55083C242.488 7.66582 244.145 7.64891 245.787 7.55083C247.144 7.47304 247.525 7.97021 247.515 9.29598C247.454 16.2799 247.481 23.2605 247.488 30.2445C247.488 33.1768 248.275 33.9614 251.182 33.9614C262.531 33.9614 273.879 33.9614 285.231 33.9614C285.841 33.9614 286.447 33.9614 287.235 33.9614Z" fill="#2382AB"/>
<path d="M235.175 8.01678C233.253 9.7484 231.338 11.4834 229.409 13.2083C224.73 17.3953 220.013 21.545 215.399 25.8031C214.754 26.3949 214.305 27.5042 214.277 28.387C214.158 32.3846 214.165 36.3923 214.257 40.3899C214.291 41.8341 213.77 42.2703 212.396 42.1858C210.924 42.0979 209.438 42.0843 207.969 42.1926C206.463 42.3042 205.88 41.8882 205.931 40.2546C206.054 36.1995 206.013 32.1377 205.931 28.0826C205.918 27.396 205.56 26.5471 205.069 26.0702C203.287 24.3386 201.375 22.7355 199.521 21.0749C194.883 16.9285 190.251 12.7787 185.62 8.62555C185.388 8.41587 185.208 8.15207 184.683 7.53653C186.458 7.53653 187.839 7.53653 189.222 7.53653C190.698 7.53653 192.197 7.69549 193.649 7.50271C196.866 7.07319 198.911 8.85215 200.983 10.8645C203.699 13.5025 206.572 15.9815 209.353 18.5553C210.15 19.296 210.638 18.7853 211.21 18.2746C214.881 14.994 218.554 11.7201 222.245 8.46322C222.654 8.10133 223.172 7.62446 223.649 7.61432C227.432 7.54329 231.218 7.57711 235.001 7.57711C235.062 7.72593 235.124 7.87135 235.182 8.02016L235.175 8.01678Z" fill="#2382AB"/>
<path d="M20.5737 0.999146H60.266C59.5571 2.33844 59.0221 3.45791 58.3916 4.51988C57.3317 6.31237 56.1049 8.01355 55.1438 9.85339C54.2578 11.5546 52.9798 12.3697 51.0986 12.3663C43.7818 12.3595 36.4649 12.3933 29.1515 12.3122C28.3438 12.302 27.2226 11.8826 26.7932 11.2739C24.7859 8.43293 22.9627 5.46009 21.102 2.52108C20.8736 2.15919 20.8089 1.69585 20.5737 1.00253V0.999146Z" fill="#2382AB"/>
<path d="M60.304 29.2126C54.9705 29.2126 50.0461 29.2126 45.1216 29.2126C42.9099 29.2126 40.7015 29.2396 38.4932 29.1923C37.9786 29.1822 37.2118 29.0672 37.0005 28.729C34.8671 25.3131 32.8224 21.8397 30.6174 18.1532C31.4183 18.0822 31.8988 18.0044 32.3793 18.0044C38.6124 17.9977 44.8456 18.0518 51.0787 17.9706C53.0757 17.9435 54.3844 18.6436 55.3181 20.3922C56.8483 23.2534 58.5046 26.047 60.304 29.216V29.2126Z" fill="#2382AB"/>
</svg>
