<svg width="30" height="29" viewBox="0 0 30 29" fill="none" xmlns="http://www.w3.org/2000/svg">
<path d="M5.90938 21.8313C7.13125 20.8969 8.49688 20.1602 10.0063 19.6211C11.5156 19.082 13.0969 18.8125 14.75 18.8125C16.4031 18.8125 17.9844 19.082 19.4937 19.6211C21.0031 20.1602 22.3687 20.8969 23.5906 21.8313C24.4292 20.849 25.082 19.7349 25.5492 18.4891C26.0164 17.2432 26.25 15.9135 26.25 14.5C26.25 11.3135 25.1299 8.60026 22.8898 6.36016C20.6497 4.12005 17.9365 3 14.75 3C11.5635 3 8.85026 4.12005 6.61016 6.36016C4.37005 8.60026 3.25 11.3135 3.25 14.5C3.25 15.9135 3.48359 17.2432 3.95078 18.4891C4.41797 19.7349 5.07083 20.849 5.90938 21.8313ZM14.75 15.9375C13.3365 15.9375 12.1445 15.4523 11.1742 14.482C10.2039 13.5117 9.71875 12.3198 9.71875 10.9062C9.71875 9.49271 10.2039 8.30078 11.1742 7.33047C12.1445 6.36016 13.3365 5.875 14.75 5.875C16.1635 5.875 17.3555 6.36016 18.3258 7.33047C19.2961 8.30078 19.7812 9.49271 19.7812 10.9062C19.7812 12.3198 19.2961 13.5117 18.3258 14.482C17.3555 15.4523 16.1635 15.9375 14.75 15.9375ZM14.75 28.875C12.7615 28.875 10.8927 28.4977 9.14375 27.743C7.39479 26.9883 5.87344 25.9641 4.57969 24.6703C3.28594 23.3766 2.26172 21.8552 1.50703 20.1063C0.752344 18.3573 0.375 16.4885 0.375 14.5C0.375 12.5115 0.752344 10.6427 1.50703 8.89375C2.26172 7.14479 3.28594 5.62344 4.57969 4.32969C5.87344 3.03594 7.39479 2.01172 9.14375 1.25703C10.8927 0.502344 12.7615 0.125 14.75 0.125C16.7385 0.125 18.6073 0.502344 20.3563 1.25703C22.1052 2.01172 23.6266 3.03594 24.9203 4.32969C26.2141 5.62344 27.2383 7.14479 27.993 8.89375C28.7477 10.6427 29.125 12.5115 29.125 14.5C29.125 16.4885 28.7477 18.3573 27.993 20.1063C27.2383 21.8552 26.2141 23.3766 24.9203 24.6703C23.6266 25.9641 22.1052 26.9883 20.3563 27.743C18.6073 28.4977 16.7385 28.875 14.75 28.875Z" fill="#2382AB"/>
</svg>
